<svg version="1" xmlns="http://www.w3.org/2000/svg" width="533.333" height="533.333" viewBox="0 0 400.000000 400.000000"><path d="M32.2 1C20.7 3.7 10.7 13.4 7.3 24.9 6 29.4 5.7 35.1 5.8 54c0 21 .2 24.2 2 29.3 3.6 10.2 11.4 17.9 21.5 21.4 4.7 1.6 10.5 1.7 63.9 1.8 32.4 0 58.9.2 58.9.5.4 1.5.5 37.7.1 38.7-.3 1-12.6 1.3-56.8 1.3H39l-.1-6.5c-.1-3.6-.2-7.1-.3-7.7-.1-1.6-32.6-1.9-32.7-.3-.5 5.8.5 20.2 1.5 23.2 3.2 8.9 6.7 13.5 13.6 18.1 9.4 6.3 10.3 6.4 78 6 60.1-.3 60.5-.3 65.3-2.5 6.5-3 12-7.5 15.6-12.7 5.3-8 5.6-9.9 5.6-38.1v-26l-2.9-6.3c-3.7-7.9-11.4-15.2-19.4-18.3-5.6-2.2-6.2-2.2-64.4-2.3-32.3-.1-58.9-.4-59.3-.8-.5-.5-.8-18.7-.5-36.1V33l56.8.2 56.7.3v15h33l.2-7.5c.3-8.7-1-16.2-3.7-21.8-2.8-5.7-10.6-13.1-17-16.1L159.5.5l-62-.2C63.4.2 34 .5 32.2 1zM212.7.9c-.2.3-.3 40.6-.2 89.6v89l16.6.3 16.5.2-.1-28.7c0-15.9.1-29.7.3-30.8.3-2 1.2-2 59-2.2 57.3-.1 58.8-.2 64.3-2.2 10.5-4 17-10.4 21.4-21.1 1.6-4 1.9-7.8 2-34 .2-30.3-.3-34.8-4-42-3.1-5.9-10.2-12.6-16.8-15.6L365.5.5h-76.3c-42-.1-76.4.1-76.5.4zm146 33.4c1 1.6 1 49.8-.1 50.4-1.6 1.1-111.8.5-112.5-.5-.5-.8-.7-42.2-.2-49.4.1-1.5 4.5-1.6 56.1-1.7 40.6 0 56.1.3 56.7 1.2zM215.8 219.8l-2.6.3V400h89.9c84.9 0 89.9-.1 90-1.8.1-1.6 0-25.8-.1-29.5 0-1.6-4.2-1.7-73.3-1.7h-73.4l-.1-69.8c0-38.3-.1-71.5-.1-73.7l-.1-4h-13.8c-7.5 0-14.9.1-16.4.3zM5 310v90.1l76.8-.3 76.7-.3 5.7-2.7c7.5-3.5 13.8-9.5 17.4-16.5l2.9-5.8.3-61.9c.2-54.6.1-62.5-1.3-67.4-3-10.1-9.4-17.3-19.5-22.1l-5.5-2.6-76.7-.3-76.8-.3V310zm146.5 0v56.5h-113l-.3-55.5c-.1-30.5 0-56.1.3-56.8.3-1 12.2-1.2 56.7-1l56.3.3V310zM365.7 222.1c-9.1 1.4-17.1 8-20.1 16.7-2.1 5.9-1.3 15.4 1.8 20.6 11.6 19.8 41.3 15.7 46.6-6.4 4.2-17.6-10.4-33.6-28.3-30.9z"/></svg>